<?xml version="1.0" encoding="utf-8"?>
<!-- Generator: Adobe Illustrator 22.1.0, SVG Export Plug-In . SVG Version: 6.00 Build 0)  -->
<svg version="1.1" id="Capa_1" xmlns="http://www.w3.org/2000/svg" xmlns:xlink="http://www.w3.org/1999/xlink" x="0px" y="0px"
	 viewBox="0 0 679.2 679.2" style="enable-background:new 0 0 679.2 679.2;" xml:space="preserve">
<g>
	<path d="M634.4,249.8c-11.3-41.7-30.1-80.7-57.6-117.5c-27.4-36.7-60.6-66.9-100.5-89.6C437.4,20.6,395.7,6,351.2,0.2
		c-9.2-1.2-16.5,2.6-21.3,10.8c-4.9,8.4-4.2,16.6,1.5,24c36.8,47.5,56.8,100.8,60.7,160.8c3.9,59.5-9.6,114.9-39.4,166.9
		c-26.2,45.8-61.7,82-107.8,108.6c-45.9,26.5-95.4,39.4-148.4,39.4c-17,0-29.8-0.7-38.3-2.3c-9.7-0.7-16.8,2.8-21.3,10.8
		c-4.8,8.7-4.7,16.7,1.5,24.7c28.9,37.6,62.3,66.8,98.9,87.7c55.3,31.7,111.7,47.6,169.3,47.6c59.9,0,115.9-15.6,168.5-46.3
		c52.9-31.1,94.8-72.6,125.2-125.2c22.9-39.7,37.1-82.4,42.5-127.5C648.3,334.8,645.6,291.2,634.4,249.8z"/>
</g>
</svg>
