<?xml version="1.0" encoding="utf-8"?>
<!-- Generator: Adobe Illustrator 22.1.0, SVG Export Plug-In . SVG Version: 6.00 Build 0)  -->
<svg version="1.1" id="Capa_1" xmlns="http://www.w3.org/2000/svg" xmlns:xlink="http://www.w3.org/1999/xlink" x="0px" y="0px"
	 viewBox="0 0 612.7 612.7" style="enable-background:new 0 0 612.7 612.7;" xml:space="preserve">
<g>
	<g>
		<path d="M593.2,286.7h-82.7c-10.8,0-19.1,8.4-19.1,19.1s8.3,19.4,19.1,19.4h82.7c10.8,0,19.1-8.7,19.1-19.4S604,286.7,593.2,286.7
			z"/>
		<path d="M464.3,175.9l58.4-59.1c7.5-7.6,7.7-18.8,0-27.1c-7.2-7.7-19.2-8-27.1,0l-58.4,59.1c-7.4,7.6-8,19.1,0,27.1
			C444.5,183.1,457,183.2,464.3,175.9z"/>
		<path d="M464.3,436.8c-8-8-20.2-8-27.1,0c-8,7-7.5,19.6,0,27.1l58.4,58.3c5.9,7.3,21.2,7.3,27.1,0c8-6.9,8-19.1,0-27.1
			L464.3,436.8z"/>
		<path d="M306.2,121.7c10.8,0,19.5-8.4,19.5-19.1V19.1C325.6,8.4,317,0,306.2,0s-19.1,8.4-19.1,19.1v83.4
			C287.1,113.3,295.4,121.7,306.2,121.7z"/>
		<path d="M306.2,491c-10.8,0-19.1,8.4-19.1,19.1v83.4c0,10.1,8.3,19.1,19.1,19.1s19.5-9,19.5-19.8v-82.7
			C325.6,499.4,317,491,306.2,491z"/>
		<path d="M411.1,200.8c-29-29-63.9-43.7-105-43.7c-41,0-76.1,14.6-105.3,43.7c-28.8,28.8-43.4,64-43.4,105s14.4,76.3,43.4,105.3
			c29,29.1,64.3,43.4,105.3,43.4c41,0,76.1-14.6,105-43.4c29.2-29.1,43.8-64.3,43.8-105.3S440.1,229.9,411.1,200.8z"/>
		<path d="M149.1,175.9c3.8,3.8,8.3,5.6,13.6,5.6c4.5,0,9-1.8,13.6-5.6c6.9-8,6.9-20.2,0-27.1l-59.1-59.1c-6.9-6.9-20.2-6.9-27.1,0
			c-8,8-7.5,19.6,0,27.1L149.1,175.9z"/>
		<path d="M148.4,436.8L90,495.3c-8,7.9-8,19.8,0,27.8c7.3,7.3,19.8,7.3,27.1,0l59.1-59.1c7.5-7.5,6.9-20.2,0-27.1
			C168.2,428.8,156.4,428.8,148.4,436.8z"/>
		<path d="M122,305.8c0-10.8-8.3-19.1-19.1-19.1H19.5c-10.8,0-19.1,8.4-19.1,19.1s8.3,19.4,19.1,19.4h83.4
			C113.6,325.3,122,316.6,122,305.8z"/>
	</g>
</g>
</svg>
