<svg xmlns="http://www.w3.org/2000/svg" xml:space="preserve" style="enable-background:new 0 0 1236.4 130.1" viewBox="0 0 1236.4 130.1"><path d="M2 42.8c1.7-6 4.6-11.5 8.5-16.3 4.2-4.9 9.4-8.7 15.4-11.1 6.4-2.7 14.1-4.1 23.1-4.1V.1H0v52.4c.4-3.3 1.1-6.5 2-9.7zM80.7 11.3c10.8 0 19.9 2.2 27.3 6.7 7.3 4.3 13.1 10.7 16.8 18.3 2.6 5.3 4.3 11 5 16.8V.1H80.7v11.2zM96.5 76.6c1.3-4.7 1.9-9.5 1.8-14.3.1-4.4-.6-8.8-2-13-1.1-3.3-3.1-6.1-5.9-8.2-2.9-2-6.3-3-9.8-2.8v49.2c4.1 0 7.5-.9 10.1-2.6 2.6-1.8 4.5-4.6 5.8-8.3zM33.3 48.9c-1.3 4.4-1.9 8.9-1.8 13.5 0 6.3.6 11.2 1.9 14.9 1.3 3.7 3.2 6.3 5.9 7.9 3 1.7 6.4 2.5 9.8 2.3V38.3c-4.1 0-7.4.9-10 2.6-2.8 1.9-4.8 4.7-5.8 8zM127.3 83.9c-2 6.1-5.2 11.6-9.5 16.3-4.3 4.6-9.7 8.2-15.6 10.5-6.9 2.6-14.2 3.8-21.5 3.7v15.4h49.1v-57c-.5 3.8-1.3 7.5-2.5 11.1zM49.1 114.4c-8.4 0-15.7-1.2-22-3.6-5.9-2.2-11.2-5.7-15.5-10.4C7.4 95.7 4.2 90.1 2.4 84 1.3 80.4.5 76.8 0 73v56.8h49.1v-15.4zM146.4 2h29.3v45.4c0 2 0 4.1-.1 6.3-.1 2.3-.1 4.7-.2 7.2s-.2 5.3-.4 8.2c-.2 2.9-.4 5.9-.6 9.1h.8L208 2h36.4v126.8h-29.3V83c0-1.8 0-3.9.1-6.1.1-2.2.1-4.7.3-7.4.1-2.7.3-5.6.5-8.7.2-3.1.4-6.4.7-9.9h-.7l-33.2 77.9h-36.2V2zM352.5 128.8h-30.2V30h-15.1c-.4 6.8-1 14-1.7 21.7-.7 7.6-1.5 15-2.3 22.3-.8 7.2-1.7 13.6-2.6 19.2-.6 4.1-1.4 8.2-2.4 12.3-1.4 5.1-3.4 9.9-6 14.5-2.1 3.5-5.1 6.3-8.8 8.1-3.6 1.7-8.1 2.6-13.7 2.6-2.6 0-5.2-.1-7.8-.5-1.9-.3-3.8-.7-5.6-1.4v-25.2c1.1.5 2.2.9 3.4 1.2 1 .3 2 .4 3 .4 1.5 0 3-.5 4-1.6 1.3-1.6 2.3-3.4 2.8-5.4 1-3.3 1.7-6.7 2.3-10.1.4-2.8 1-7.3 1.7-13.3.7-6 1.5-13 2.4-21 .9-8 1.7-16.5 2.6-25.3s1.6-17.6 2.2-26.3h71.7v126.6zM373.3 128.8V2h30.2v45.1h.7c9.7 0 17.9 1.5 24.7 4.5 6.4 2.7 11.8 7.3 15.4 13.3 3.5 5.9 5.3 13.2 5.3 21.9 0 13.6-3.8 24-11.5 31.2-7.7 7.2-18.4 10.8-32.2 10.8h-32.6zm30.2-25.8h.7c5.1 0 9-1.3 11.5-3.9 2.5-2.6 3.8-6.4 3.8-11.6.1-2.9-.5-5.8-1.7-8.4-1.1-2.2-2.9-3.9-5.1-4.9-2.7-1.2-5.7-1.7-8.7-1.6h-.5V103zM514.5 128.8l-21.8-85.3h-.7c.3 3.8.5 7.5.7 11.1.2 3.6.4 6.9.5 10.1.1 3.2.2 6.2.2 9v55.1h-28.2V2h41.4l19.7 76.1h.5L546.5 2h41v126.8h-28.9V73.2c0-3.2.1-6.3.2-9.5s.3-6.4.4-9.8c.2-3.3.4-6.8.6-10.4h-.7l-22.2 85.2h-22.4zM701.3 65.2c.1 9.5-.9 18.9-3.1 28.1-2.1 8.1-5.1 14.9-9.2 20.5-3.9 5.4-9.1 9.7-15.1 12.5-13.3 5.6-28.2 5.6-41.5 0-6-2.8-11.3-7.1-15.2-12.5-4.1-5.5-7.2-12.3-9.3-20.5-2.2-9.2-3.2-18.7-3.1-28.2 0-14.1 1.8-26 5.5-35.6 3.7-9.7 9.1-17 16.3-21.9 7.3-5 16.1-7.5 26.6-7.5s19.3 2.5 26.5 7.4c7.2 4.9 12.6 12.2 16.2 21.9s5.4 21.5 5.4 35.8zm-65 0c-.1 7.2.5 14.5 1.9 21.6 1.3 5.8 3.2 10.1 5.7 13 4.6 5.2 12.5 5.7 17.7 1.2.4-.3.7-.7 1-1 2.5-2.8 4.3-7 5.5-12.8 1.3-7.2 1.9-14.6 1.8-21.9 0-13.4-1.4-23.3-4.1-29.7-2.7-6.4-6.9-9.6-12.5-9.6-3.6 0-7 1.6-9.3 4.4-2.5 2.9-4.4 7.3-5.7 13.1-1.5 7.1-2.1 14.4-2 21.7zM718.8 128.8V2h84.7v126.8h-30.2V28.1h-24.4v100.7h-30.1zM917.1 65.2c.1 9.5-.9 18.9-3.1 28.1-2.1 8.1-5.1 14.9-9.2 20.5-3.9 5.4-9.1 9.7-15.1 12.5-6 2.8-12.9 4.2-20.8 4.2-7.1.1-14.2-1.3-20.7-4.2-6-2.8-11.3-7.1-15.2-12.5-4.1-5.5-7.2-12.3-9.3-20.5-2.2-9.2-3.3-18.7-3.1-28.2 0-14.1 1.8-26 5.5-35.6 3.7-9.7 9.1-17 16.3-21.9 7.2-5 16.1-7.5 26.5-7.5 10.5 0 19.3 2.5 26.5 7.4 7.2 4.9 12.6 12.2 16.2 21.9 3.7 9.5 5.6 21.5 5.5 35.8zm-65 0c-.1 7.2.5 14.5 1.9 21.6 1.3 5.8 3.2 10.1 5.7 13 4.6 5.2 12.5 5.7 17.7 1.2.4-.3.7-.7 1-1 2.5-2.8 4.3-7 5.5-12.8 1.3-7.2 1.9-14.6 1.8-21.9 0-13.4-1.4-23.3-4.1-29.7s-6.9-9.6-12.5-9.6c-3.6 0-7 1.6-9.3 4.4-2.5 2.9-4.4 7.3-5.7 13.1-1.5 7.1-2.1 14.4-2 21.7zM934.6 2h29.3v45.4c0 2 0 4.1-.1 6.3-.1 2.3-.1 4.7-.2 7.2s-.2 5.3-.4 8.2c-.2 2.9-.4 5.9-.6 9.1h.8L996.1 2h36.4v126.8h-29.3V83c0-1.8 0-3.9.1-6.1.1-2.2.1-4.7.3-7.4.1-2.7.3-5.6.5-8.7.2-3.1.4-6.4.6-9.9h-.7l-33.2 77.9h-36.2V2zM1099.6 26.1c-2.9 0-5.7.9-7.9 2.7-2.5 2.1-4.5 4.8-5.8 7.9-1.7 4-2.9 8.2-3.6 12.5-.9 5.5-1.3 11.1-1.2 16.6 0 8.6.7 15.7 2.2 21.4 1.5 5.7 3.7 10 6.6 12.8 3 2.8 7 4.4 11.1 4.3 4.1 0 8.1-.8 11.8-2.3 3.9-1.6 7.7-3.5 11.4-5.6v27c-4.1 2.4-8.5 4.2-13.1 5.3-4.9 1.2-9.9 1.8-15 1.7-10.1 0-18.5-2.5-25.4-7.5-6.9-5-12.1-12.3-15.7-21.9-3.6-9.7-5.4-21.4-5.4-35.4-.1-9 1.1-18 3.4-26.7 1.9-7.4 5.1-14.4 9.4-20.7 3.9-5.6 8.9-10.2 14.9-13.4 6.1-3.2 12.8-4.8 19.7-4.7 5.5 0 10.9.7 16.2 2.2 5.4 1.6 10.6 3.8 15.4 6.8l-8 24.8c-3.2-2.3-6.6-4.2-10.2-5.7-3.4-1.4-7-2.1-10.8-2.1zM1232.5 128.8h-33.4l-25.6-65.2v65.2h-30.2V2h30.2v58.8l27-58.8h32.5l-30.5 60.2 30 66.6z"/></svg>